<svg width="201" height="100" viewBox="0 0 201 100" fill="none" xmlns="http://www.w3.org/2000/svg">
    <g clip-path="url(#clip0_168_810)">
        <path d="M23.12 13.61C23.16 13.24 23.19 12.86 23.19 12.48C23.19 12.27 23.19 12.02 23.17 11.74C26.44 11.69 29.3 9.34 29.3 6.63C29.3 5.25 28.4 4.21 27.9 3.59C28.01 3.57 28.13 3.54 28.24 3.51C28.72 3.93 30.08 5.41 30.08 7.27C30.08 10.52 26.83 13.53 23.13 13.6M19.83 2.3C19.77 1.94 19.63 1.61 19.42 1.33C19.43 1 19.57 0.680002 20.1 0.940002C19.81 1.24 20.03 1.76 20.03 1.76C20.03 1.76 20.62 1.49 20.5 1.1C21.38 1.31 20.75 2.49 19.83 2.3ZM19.07 3.97C18.95 3.48 18.7 2.99 18.39 2.61C18.1 2.27 17.62 1.86 16.98 1.86C16.69 1.86 16.19 2 15.88 2.13C15.76 1.92 15.54 1.4 15.54 1.17C15.54 0.940002 15.94 0.690002 16.71 0.690002C18.4 0.690002 19.41 1.45 19.41 2.74C19.41 3.19 19.23 3.6 19.07 3.96M23.42 25.77C23.62 25.77 23.71 25.8 23.83 25.84C24.32 27.16 26.19 29.66 26.27 29.77L26.29 29.79H26.32C26.78 29.71 27.96 29.53 28.94 29.53H28.96C29.07 29.53 29.19 29.53 29.26 29.61C29.32 29.67 29.36 29.79 29.36 29.94C29.36 30.18 29.26 30.6 29.13 30.78C28.79 30.4 28.23 30.24 27.33 30.24C27.06 30.24 26.74 30.32 26.57 30.37H26.5L26.42 30.41L26.94 30.93C27.74 31.73 28.43 32.41 28.43 32.87C28.43 33.15 28.16 33.5 27.92 33.66C27.87 32.82 27.02 31.7 26.2 31.07L26.13 31.02V31.32C26.11 31.52 26.09 31.82 26.09 32.14C26.09 33.74 25.93 33.98 25.38 33.98C25.29 33.98 25.17 33.96 25.08 33.93C25.39 33.54 25.51 33.04 25.51 32.14V31.4C25.51 31.03 25.55 30.76 25.58 30.55L25.6 30.43H25.51C25.25 30.38 24.77 30.32 24.4 30.32C23.61 30.32 23.08 30.39 22.69 30.76C22.43 30.55 22.17 30.2 22.17 29.97C22.17 29.64 22.38 29.61 22.65 29.61C22.79 29.61 22.92 29.63 23.09 29.65C23.43 29.7 23.94 29.78 24.99 29.78H25.06L25.04 29.72C24.77 28.96 24.04 27.85 22.87 26.42C22.97 26.04 23.08 25.79 23.45 25.79M13.3 29.7L13.28 29.76H13.35C14.4 29.76 14.91 29.68 15.25 29.63C15.43 29.61 15.55 29.59 15.69 29.59C15.96 29.59 16.17 29.62 16.17 29.95C16.17 30.17 15.91 30.53 15.65 30.74C15.26 30.38 14.73 30.3 13.94 30.3C13.57 30.3 13.09 30.37 12.83 30.4H12.79L12.74 30.41V30.53C12.79 30.75 12.82 31.02 12.82 31.38V32.12C12.82 33.01 12.94 33.52 13.26 33.91C13.18 33.94 13.05 33.96 12.96 33.96C12.41 33.96 12.25 33.72 12.25 32.12C12.25 31.8 12.23 31.5 12.22 31.3L12.2 31L12.13 31.05C11.31 31.68 10.46 32.8 10.41 33.64C10.16 33.48 9.89 33.12 9.89 32.85C9.89 32.39 10.58 31.71 11.38 30.91L11.9 30.39L11.75 30.35C11.58 30.3 11.26 30.22 10.99 30.22C10.1 30.22 9.54 30.39 9.19 30.76C9.07 30.58 8.96 30.16 8.96 29.92C8.96 29.76 8.99 29.65 9.06 29.59C9.14 29.51 9.26 29.51 9.36 29.51H9.38C10.36 29.51 11.54 29.69 12 29.76H12.03L12.05 29.74C12.13 29.63 14.01 27.13 14.49 25.81C14.6 25.77 14.7 25.74 14.89 25.74C15.26 25.74 15.36 25.99 15.47 26.37C14.3 27.79 13.57 28.9 13.3 29.67M8.23 7.28C8.23 5.41 9.59 3.93 10.07 3.52C10.18 3.55 10.3 3.57 10.41 3.6C9.9 4.22 9 5.26 9 6.64C9 9.37 11.92 11.75 15.23 11.75C15.1823 12.3696 15.1923 12.9923 15.26 13.61C11.52 13.59 8.23 10.55 8.23 7.28ZM33.32 13.04C35 15.69 36.31 15.65 38.3 15.65C36.66 14.39 35.57 12.78 35.06 11.96L31.99 7.06C31.686 5.52135 30.8933 4.12196 29.73 3.07C30.13 2.92 30.45 2.76 30.65 2.61C28.65 2.61 26.66 1.59 25.57 1.59C24.87 1.59 24.42 2.01 24.42 2.56C24.46 3.18 25.1 3.81 26.28 3.81C26.55 3.81 26.89 3.78 27.26 3.71C27.9 4.6 28.41 5.4 28.41 6.54C28.41 8.69 25.84 10.36 23.25 10.36C23.1 10.36 22.96 10.36 22.82 10.34C22.59 9.81 21.8 8.91 21.8 7.9C21.8 6.19 22.91 4.8 22.91 3.11C22.91 2.06 22.4 1.41 22.2 1.14C22.52 0.839999 22.87 0.48 22.95 0.23C22.76 0.31 22.55 0.32 22.23 0.32C20.99 0.32 19.97 0 18.99 0C18.43 0 18.28 0.17 18.28 0.34C18.28 0.4 18.28 0.460002 18.3 0.490002C18.09 0.410002 17.89 0.350001 17.66 0.310001C17.37 0.250001 17.06 0.23 16.72 0.23C15.52 0.23 15.09 0.73 15.09 1.16C15.09 1.52 15.38 2.19 15.7 2.7C16.17 2.46 16.73 2.3 16.99 2.3C17.63 2.3 18.19 2.91 18.49 3.62C18.06 3.67 17.98 3.69 17.55 3.69C16.38 3.69 15.59 3.27 15.42 3.27C15.41 3.27 15.37 3.27 15.37 3.3C15.37 3.46 15.7 3.9 16.35 4.13C17.21 4.44 18.5 4.58 18.71 4.61C18.71 4.65 18.49 5.05 18.25 5.13C18.2 5.15 18.16 5.15 18.1 5.13C17.2 4.95 16.95 4.88 15.81 4.44C15.78 4.43 15.75 4.44 15.75 4.48C15.75 4.93 16.92 5.93 17.96 6.31C17.09 7.42 16 8.57 15.48 10.31C15.33 10.31 15.19 10.33 15.05 10.33C12.46 10.33 9.89 8.66 9.89 6.51C9.89 5.37 10.4 4.56 11.04 3.68C11.41 3.74 11.75 3.78 12.02 3.78C13.2 3.78 13.83 3.15 13.88 2.53C13.88 1.98 13.43 1.56 12.73 1.56C11.64 1.56 9.66 2.58 7.65 2.58C7.85 2.73 8.18 2.89 8.57 3.04C7.40564 4.0896 6.61565 5.49053 6.32 7.03L3.25 11.93C2.73 12.75 1.65 14.36 0 15.62C1.98 15.62 3.3 15.66 4.98 13.01L6.55 10.5C6.67 10.83 6.81 11.14 6.98 11.46L3.85 16.46C3.33 17.29 2.25 18.89 0.600002 20.15C2.58 20.15 3.9 20.2 5.58 17.54L8.27 13.23C8.47 13.44 8.68 13.65 8.91 13.85L5.11 19.93C4.59 20.76 3.52 22.35 1.87 23.62C3.85 23.62 5.17 23.67 6.85 21.01L10.55 15.08C10.79 15.23 11.04 15.38 11.3 15.52L6.78 22.75C6.26 23.58 5.19 25.17 3.54 26.44C5.52 26.44 6.84 26.49 8.52 23.83L13.17 16.38C13.45 16.48 13.72 16.59 14.01 16.68L8.75 25.09C8.24 25.91 7.14 27.53 5.51 28.78C7.49 28.78 8.81 28.83 10.49 26.17L16.09 17.2C16.15 17.2 16.2 17.22 16.26 17.23C16.41 17.72 16.52 18.17 16.52 18.62C16.52 21.44 14.67 23.93 12.45 25.85C12.59 25.91 12.84 25.93 13.07 25.93C13.53 25.93 13.82 25.91 14.03 25.87C13.52 27.04 12.41 28.55 11.85 29.33C11.12 29.2 10.07 29.1 9.37 29.1C8.67 29.1 8.56 29.52 8.56 29.9C8.56 30.56 8.87 31.08 9.23 31.37C9.36 31.03 9.63 30.58 10.97 30.58H11.1C10.71 31.01 9.49 32 9.49 32.8C9.49 33.33 10.07 34.12 10.83 34.12C10.79 33.95 10.79 33.79 10.79 33.68C10.79 33.03 11.36 32.28 11.85 31.75C11.84 31.91 11.85 31.89 11.85 32.07C11.85 33.6 11.99 34.3 12.96 34.3C13.44 34.3 13.76 34.04 13.88 33.96C13.25 33.38 13.22 32.93 13.22 32.07V31.33C13.22 31.13 13.22 30.87 13.19 30.69C13.54 30.64 13.68 30.64 13.94 30.64C13.94 30.64 15.32 30.53 15.65 31.25C16.02 30.91 16.57 30.42 16.57 29.89C16.57 29.54 16.4 29.14 15.69 29.14C15.42 29.14 14.58 29.3 13.87 29.3C14.06 28.88 14.9 27.64 15.64 26.75C15.75 27.1 15.92 27.47 16.31 27.78C16.36 27.2 16.7 25.38 17.6 24.31C17.7 25.03 17.85 25.77 17.85 27.33C17.85 31.12 16.94 33.93 15 34.46C15.25 34.9 15.79 35.29 16.34 35.29C17.05 35.29 17.43 34.49 17.83 33.73C18.03 34.29 18.6 35.65 19.17 35.65C19.74 35.65 20.3 34.28 20.51 33.73C20.9 34.49 21.29 35.29 22 35.29C22.55 35.29 23.09 34.89 23.34 34.46C21.4 33.93 20.49 31.12 20.49 27.33C20.49 25.77 20.63 25.03 20.74 24.31C21.64 25.38 21.98 27.2 22.03 27.78C22.42 27.47 22.59 27.1 22.7 26.75C23.43 27.65 24.28 28.88 24.47 29.3C23.76 29.3 22.92 29.14 22.65 29.14C21.94 29.14 21.77 29.54 21.77 29.89C21.77 30.42 22.31 30.91 22.69 31.25C23.02 30.53 24.4 30.64 24.4 30.64C24.67 30.64 24.81 30.64 25.15 30.69C25.12 30.88 25.12 31.14 25.12 31.33V32.07C25.12 32.93 25.09 33.38 24.46 33.96C24.57 34.04 24.9 34.3 25.38 34.3C26.35 34.3 26.49 33.6 26.49 32.07V31.75C26.97 32.28 27.55 33.03 27.55 33.68C27.55 33.8 27.55 33.95 27.51 34.12C28.27 34.12 28.85 33.33 28.85 32.8C28.85 32 27.63 31.01 27.23 30.58H27.36C28.7 30.58 28.97 31.03 29.1 31.37C29.46 31.08 29.77 30.56 29.77 29.9C29.77 29.52 29.69 29.1 28.96 29.1C28.23 29.1 27.21 29.2 26.48 29.33C25.92 28.55 24.82 27.04 24.3 25.87C24.51 25.91 24.8 25.93 25.26 25.93C25.49 25.93 25.74 25.91 25.88 25.85C23.66 23.93 21.81 21.44 21.81 18.62C21.81 18.17 21.92 17.72 22.07 17.23C22.12 17.22 22.18 17.21 22.24 17.2L27.84 26.17C29.52 28.82 30.83 28.78 32.82 28.78C31.19 27.53 30.09 25.91 29.58 25.09L24.32 16.68C24.61 16.59 24.89 16.49 25.16 16.38L29.81 23.83C31.49 26.48 32.8 26.44 34.79 26.44C33.14 25.17 32.07 23.58 31.55 22.75L27.03 15.52C27.29 15.38 27.54 15.23 27.78 15.08L31.48 21.01C33.16 23.66 34.47 23.62 36.46 23.62C34.81 22.36 33.74 20.76 33.22 19.93L29.42 13.85C29.64 13.65 29.86 13.44 30.05 13.23L32.74 17.54C34.42 20.19 35.73 20.15 37.72 20.15C36.07 18.88 35 17.29 34.47 16.46L31.35 11.46C31.52 11.15 31.66 10.83 31.78 10.5L33.35 13.01L33.32 13.04ZM48.25 1.65H53.99V34.44H48.25V1.65Z" fill="black" style="fill:black;fill-opacity:1;"/>
        <path d="M48.25 34.44H53.99V67.23H48.25V34.44Z" fill="#FF0000" style="fill:#FF0000;fill:color(display-p3 1.0000 0.0000 0.0000);fill-opacity:1;"/>
        <path d="M48.25 67.22H53.99V100.01H48.25V67.22Z" fill="#FFCC00" style="fill:#FFCC00;fill:color(display-p3 1.0000 0.8000 0.0000);fill-opacity:1;"/>
        <path d="M74.138 4.64001C74.138 2.53501 72.859 1.17702 69.632 1.17702H67.015V14.754H69.79C73.036 14.754 74.492 13.2 74.492 11.074C74.492 9.26402 73.332 8.08402 71.935 7.80802V7.76802C73.115 7.45402 74.138 6.52901 74.138 4.64001ZM72.407 4.70002C72.407 6.25402 71.443 7.21802 69.613 7.21802H68.727V2.53502H69.632C71.541 2.53502 72.407 3.46102 72.407 4.70002ZM72.663 10.956C72.663 12.511 71.797 13.337 69.79 13.337H68.727V8.57602H69.888C71.659 8.57602 72.663 9.50002 72.663 10.956ZM81.713 13.691H81.753V14.754H83.209V5.30902H81.615V12.531C81.301 12.924 80.671 13.573 79.707 13.573C78.644 13.573 78.133 12.943 78.133 11.389V5.30902H76.539V11.507C76.539 14.065 77.582 14.99 79.254 14.99C80.691 14.99 81.536 14.026 81.713 13.691ZM89.171 6.43102C90.273 6.43102 90.804 7.08101 90.804 8.67402V14.754H92.398V8.55602C92.398 5.99801 91.335 5.07302 89.643 5.07302C88.168 5.07302 87.321 6.03702 87.144 6.37202H87.105V5.30902H85.649V14.754H87.243V7.47402C87.558 7.08002 88.207 6.43102 89.171 6.43102ZM98.084 13.573C96.983 13.573 95.999 12.708 95.999 10.11C95.999 7.43402 97.159 6.49002 98.635 6.49002C99.206 6.49002 99.58 6.64702 99.855 6.82402V12.649C99.6592 12.9372 99.3951 13.1724 99.0863 13.3336C98.7774 13.4949 98.4324 13.5771 98.084 13.573ZM99.954 13.751H99.994V14.754H101.449V0.666016L99.855 0.843018V5.36802C99.56 5.25002 99.127 5.13202 98.517 5.13202C96.51 5.13202 94.346 6.35202 94.346 10.169C94.346 13.613 95.861 14.99 97.652 14.99C99.147 14.99 99.777 14.047 99.954 13.751ZM106.959 6.37102C107.962 6.37102 108.493 7.13901 108.493 8.43801C108.493 8.73301 108.473 8.98802 108.453 9.12702H105.03C105.109 7.35602 105.837 6.37102 106.959 6.37102ZM110.146 13.869L109.556 12.747C109.297 13.0116 108.988 13.2212 108.646 13.3631C108.305 13.5051 107.938 13.5765 107.568 13.573C105.975 13.573 105.108 12.531 105.011 10.327H109.831C109.891 9.87401 109.949 9.30402 109.949 8.49702C109.949 6.23402 108.847 5.07302 107.057 5.07302C105.089 5.07302 103.457 6.56902 103.457 9.91302C103.457 13.475 104.952 14.99 107.332 14.99C109.122 14.99 109.89 14.144 110.146 13.869ZM116.836 6.07701C116.521 5.76201 115.892 5.07302 114.436 5.07302C112.901 5.07302 111.701 6.11602 111.701 7.51302C111.701 8.81202 112.409 9.57901 113.589 10.327L114.179 10.701C115.085 11.271 115.557 11.586 115.557 12.491C115.557 13.101 115.046 13.573 114.101 13.573C113.078 13.573 112.488 12.963 112.192 12.649L111.425 13.908C111.799 14.301 112.566 14.99 114.081 14.99C116.01 14.99 117.091 13.83 117.091 12.334C117.091 10.937 116.305 10.169 115.026 9.40202L114.436 9.04802C113.589 8.53602 113.196 8.14302 113.196 7.43402C113.196 6.88402 113.649 6.43102 114.495 6.43102C115.38 6.43102 115.931 6.98102 116.147 7.21802L116.836 6.07701ZM122.503 6.49002C123.487 6.49002 123.92 7.14002 123.92 8.67402V14.754H125.513V8.41801C125.513 8.06401 125.493 7.73002 125.435 7.43402C125.789 7.02102 126.379 6.49002 127.245 6.49002C128.307 6.49002 128.878 7.14002 128.878 8.67402V14.754H130.472V8.41801C130.472 6.17501 129.488 5.07302 127.599 5.07302C126.379 5.07302 125.513 5.80102 125.1 6.33302C124.667 5.48602 123.88 5.07302 122.818 5.07302C121.519 5.07302 120.712 5.93902 120.457 6.37202H120.417V5.30902H118.961V14.754H120.555V7.47402C120.83 7.13902 121.44 6.49002 122.503 6.49002ZM133.659 3.02702C134.289 3.02702 134.722 2.55502 134.722 1.88602C134.722 1.23602 134.289 0.764015 133.659 0.764015C133.01 0.764015 132.577 1.23602 132.577 1.88602C132.577 2.55502 133.01 3.02702 133.659 3.02702ZM134.446 5.30902H132.853V14.754H134.446V5.30902ZM140.408 6.43102C141.51 6.43102 142.042 7.08101 142.042 8.67402V14.754H143.635V8.55602C143.635 5.99801 142.573 5.07302 140.881 5.07302C139.405 5.07302 138.559 6.03702 138.381 6.37202H138.342V5.30902H136.886V14.754H138.48V7.47402C138.795 7.08002 139.444 6.43102 140.408 6.43102ZM146.823 3.02702C147.453 3.02702 147.885 2.55502 147.885 1.88602C147.885 1.23602 147.453 0.764015 146.823 0.764015C146.173 0.764015 145.741 1.23602 145.741 1.88602C145.741 2.55502 146.174 3.02702 146.823 3.02702ZM147.61 5.30902H146.016V14.754H147.61V5.30902ZM154.812 6.07701C154.497 5.76201 153.867 5.07302 152.411 5.07302C150.876 5.07302 149.676 6.11602 149.676 7.51302C149.676 8.81202 150.384 9.57901 151.565 10.327L152.155 10.701C153.06 11.271 153.533 11.586 153.533 12.491C153.533 13.101 153.021 13.573 152.077 13.573C151.053 13.573 150.463 12.963 150.167 12.649L149.401 13.908C149.774 14.301 150.541 14.99 152.057 14.99C153.985 14.99 155.067 13.83 155.067 12.334C155.067 10.937 154.28 10.169 153.001 9.40202L152.411 9.04802C151.565 8.53602 151.171 8.14302 151.171 7.43402C151.171 6.88402 151.624 6.43102 152.47 6.43102C153.355 6.43102 153.906 6.98102 154.123 7.21802L154.812 6.07701ZM161.226 14.577L161.01 13.297C160.714 13.4774 160.373 13.5729 160.026 13.573C159.219 13.573 158.904 13.18 158.904 11.842V6.60802H160.97L161.167 5.30902H158.904V2.67302H157.488L157.31 5.30902L156.17 5.54502V6.60802H157.31V12.058C157.31 14.144 158.137 14.99 159.75 14.99C160.596 14.99 161.088 14.675 161.226 14.577ZM165.712 6.37202C166.716 6.37202 167.247 7.13901 167.247 8.43801C167.247 8.73301 167.227 8.98802 167.207 9.12702H163.784C163.863 7.35602 164.591 6.37202 165.712 6.37202ZM168.9 13.869L168.31 12.747C168.051 13.0116 167.742 13.2212 167.4 13.3631C167.059 13.5051 166.692 13.5765 166.322 13.573C164.728 13.573 163.862 12.531 163.764 10.327H168.585C168.644 9.87401 168.703 9.30402 168.703 8.49702C168.703 6.23402 167.601 5.07302 165.811 5.07302C163.843 5.07302 162.21 6.56902 162.21 9.91302C162.21 13.475 163.705 14.99 166.086 14.99C167.876 14.99 168.644 14.144 168.9 13.869ZM175.177 5.28902C175.019 5.23102 174.763 5.13202 174.311 5.13202C173.111 5.13202 172.599 5.84102 172.324 6.58802H172.284V5.30902H170.828V14.754H172.422V7.82802C172.658 7.19802 173.189 6.54802 174.192 6.54802C174.626 6.54802 174.902 6.66702 174.98 6.70602L175.177 5.28902ZM177.361 3.02702C177.991 3.02702 178.423 2.55502 178.423 1.88602C178.423 1.23602 177.99 0.764015 177.361 0.764015C176.711 0.764015 176.278 1.23602 176.278 1.88602C176.278 2.55502 176.711 3.02702 177.361 3.02702ZM178.148 5.30902H176.554V14.754H178.148V5.30902ZM185.703 13.691H185.743V14.754H187.199V5.30902H185.605V12.531C185.29 12.924 184.661 13.573 183.696 13.573C182.634 13.573 182.122 12.943 182.122 11.389V5.30902H180.529V11.507C180.529 14.065 181.571 14.99 183.244 14.99C184.68 14.99 185.526 14.026 185.704 13.691H185.703ZM193.181 6.49002C194.164 6.49002 194.597 7.14002 194.597 8.67402V14.754H196.191V8.41801C196.191 8.06401 196.171 7.73002 196.112 7.43402C196.466 7.02102 197.057 6.49002 197.922 6.49002C198.985 6.49002 199.556 7.14002 199.556 8.67402V14.754H201.149V8.41801C201.149 6.17501 200.166 5.07302 198.277 5.07302C197.057 5.07302 196.191 5.80102 195.777 6.33302C195.345 5.48602 194.557 5.07302 193.495 5.07302C192.197 5.07302 191.39 5.93902 191.135 6.37202H191.095V5.30902H189.639V14.754H191.233V7.47402C191.508 7.13902 192.118 6.49002 193.181 6.49002ZM70.656 26.284L70.852 24.986H68.727V23.294C68.727 22.054 69.14 21.641 69.888 21.641C70.301 21.641 70.597 21.798 70.754 21.897L71.088 20.578C70.6806 20.3453 70.2193 20.2233 69.75 20.224C68.353 20.224 67.133 21.05 67.133 23.116V25.006L65.993 25.222V26.284H67.133V34.43H68.727V26.284H70.656ZM77.956 22.27C77.956 21.66 77.542 21.267 77.011 21.267C76.48 21.267 76.067 21.66 76.067 22.27C76.067 22.88 76.48 23.274 77.011 23.274C77.542 23.274 77.956 22.88 77.956 22.27ZM74.926 22.27C74.926 21.66 74.512 21.267 73.981 21.267C73.45 21.267 73.036 21.66 73.036 22.27C73.036 22.88 73.45 23.274 73.981 23.274C74.512 23.274 74.926 22.88 74.926 22.27ZM77.346 33.368H77.385V34.43H78.841V24.986H77.247V32.207C76.932 32.6 76.303 33.25 75.339 33.25C74.276 33.25 73.764 32.62 73.764 31.066V24.986H72.171V31.184C72.171 33.742 73.214 34.667 74.886 34.667C76.322 34.667 77.168 33.703 77.346 33.368ZM85.629 24.966C85.472 24.907 85.216 24.809 84.764 24.809C83.564 24.809 83.052 25.517 82.776 26.265H82.736V24.985H81.281V34.43H82.875V27.504C83.111 26.874 83.642 26.225 84.645 26.225C85.078 26.225 85.354 26.343 85.433 26.383L85.629 24.966ZM97.593 20.854L94.897 29.885C94.602 30.869 94.327 31.853 94.307 32.443H94.267C94.247 31.853 93.992 30.869 93.697 29.865L91.099 20.854H89.249L93.539 34.43H94.897L99.304 20.854H97.593ZM102.866 26.048C103.869 26.048 104.401 26.816 104.401 28.114C104.401 28.409 104.381 28.665 104.361 28.803H100.938C101.016 27.033 101.744 26.048 102.866 26.048ZM106.053 33.545L105.463 32.423C105.205 32.6877 104.895 32.8973 104.554 33.0395C104.213 33.1816 103.846 33.2532 103.476 33.25C101.882 33.25 101.016 32.207 100.918 30.003H105.738C105.798 29.551 105.857 28.98 105.857 28.173C105.857 25.911 104.755 24.75 102.964 24.75C100.997 24.75 99.364 26.245 99.364 29.59C99.364 33.151 100.859 34.667 103.24 34.667C105.03 34.667 105.798 33.82 106.053 33.545ZM112.33 24.966C112.173 24.907 111.917 24.809 111.464 24.809C110.264 24.809 109.753 25.517 109.477 26.265H109.437V24.985H107.982V34.43H109.575V27.504C109.812 26.874 110.343 26.225 111.346 26.225C111.779 26.225 112.055 26.343 112.133 26.383L112.33 24.966ZM120.398 24.986H118.508L115.97 28.666H115.301V20.342L113.708 20.519V34.43H115.301V30.023H115.951L118.607 34.43H120.516L117.269 29.315L120.398 24.986ZM124.628 26.048C125.631 26.048 126.163 26.816 126.163 28.114C126.163 28.409 126.143 28.665 126.123 28.803H122.7C122.778 27.033 123.506 26.048 124.628 26.048ZM127.816 33.545L127.226 32.423C126.968 32.6878 126.658 32.8975 126.317 33.0396C125.975 33.1818 125.608 33.2533 125.238 33.25C123.644 33.25 122.778 32.207 122.68 30.003H127.5C127.56 29.551 127.619 28.98 127.619 28.173C127.619 25.911 126.517 24.75 124.726 24.75C122.759 24.75 121.126 26.245 121.126 29.59C121.126 33.151 122.621 34.667 125.002 34.667C126.792 34.667 127.56 33.82 127.816 33.545ZM133.266 26.107C134.368 26.107 134.899 26.757 134.899 28.35V34.43H136.493V28.232C136.493 25.733 135.45 24.75 133.797 24.75C132.282 24.75 131.574 25.655 131.377 25.95H131.337V20.342L129.744 20.519V34.43H131.338V27.15C131.652 26.757 132.302 26.107 133.266 26.107ZM143.222 24.967C143.065 24.907 142.809 24.809 142.356 24.809C141.156 24.809 140.645 25.517 140.369 26.265H140.329V24.985H138.874V34.43H140.467V27.504C140.704 26.874 141.235 26.225 142.238 26.225C142.671 26.225 142.947 26.343 143.025 26.383L143.222 24.967Z" fill="black" style="fill:black;fill-opacity:1;"/>
    </g>
    <defs>
        <clipPath id="clip0_168_810">
            <rect width="201" height="100" fill="white" style="fill:white;fill-opacity:1;"/>
        </clipPath>
    </defs>
</svg>
