<svg width="802" height="131" viewBox="0 0 802 131" fill="none" xmlns="http://www.w3.org/2000/svg"><script xmlns="" type="text/javascript" src="moz-extension://4479f1f4-9eb8-45ce-abe7-aeaae23bf691/dist/inject.js"/>
<g clip-path="url(#clip0_1_13)">
<path d="M801.538 88.9721H796.331L768.068 56.4303V88.9721H762.367V46.7007H767.2L795.836 79.4237V46.7007H801.538V88.9721ZM750.224 52.1529H732.312V64.9205H749.606V70.3773H732.312V83.5158H750.784V88.9721H726.237V46.7007H750.224V52.1529ZM712.538 88.9721H707.331L679.068 56.4303V88.9721H673.367V46.7007H678.2L706.836 79.4237V46.7007H712.538V88.9721ZM659.538 88.9721H654.332L626.069 56.4303V88.9721H620.367V46.7007H625.2L653.836 79.4237V46.7007H659.538V88.9721ZM600.409 88.9721H606.483V46.7007H600.409V88.9721ZM524.711 83.5158H534.38C548.14 83.5158 551.3 73.0398 551.3 67.8344C551.3 59.3441 545.908 52.1529 534.071 52.1529H524.711V83.5158ZM518.638 46.7007H535.061C550.681 46.7007 557.56 57.8553 557.56 67.8344C557.56 78.6812 549.069 88.9721 535.124 88.9721H518.638V46.7007ZM489.02 83.5158H508.108V88.9721H482.943V46.7007H489.02V83.5158ZM470.802 52.1529H452.89V64.9205H470.182V70.3773H452.89V83.5158H471.359V88.9721H446.816V46.7007H470.802V52.1529ZM431.255 88.9721H425.184V70.5624H401.506V88.9721H395.432V46.7007H401.506V65.1068H425.184V46.7007H431.255V88.9721ZM367.115 83.5158H386.204V88.9721H361.04V46.7007H367.115V83.5158ZM326.277 71.0582H339.415L332.601 55.7483L326.277 71.0582ZM353.733 88.9721H347.535L341.896 76.5144H323.921L318.591 88.9721H312.393L330.555 46.4511H334.83L353.733 88.9721ZM295.408 88.9721H301.484V46.7007H295.408V88.9721ZM249.125 52.1529V46.7007H285.569L258.67 83.5158H285.569V88.9721H247.451L274.351 52.1529H249.125ZM217.863 83.9517C227.345 83.9517 234.35 77.0711 234.35 67.8384C234.35 58.5408 227.345 51.7211 217.863 51.7211C208.44 51.7211 201.437 58.5408 201.437 67.8384C201.437 77.0711 208.44 83.9517 217.863 83.9517ZM217.863 46.1424C231.807 46.1424 240.608 56.0594 240.608 67.8384C240.608 79.2426 232.055 89.5287 217.737 89.5287C203.915 89.5287 195.176 79.3029 195.176 67.8384C195.176 56.1215 204.164 46.1424 217.863 46.1424ZM187.251 55.9985C183.655 52.5888 180.185 51.5981 177.335 51.5981C173.43 51.5981 170.64 53.6418 170.64 56.6178C170.64 64.7388 188.924 64.6146 188.924 78.0636C188.924 84.6941 183.903 89.5287 177.085 89.5287C172.498 89.5287 168.78 88.2894 165.248 85.6263V77.9388C168.346 81.9057 172.251 84.0765 176.405 84.0765C181.115 84.0765 183.284 81.1029 183.284 78.7457C183.284 70.0053 165 69.0162 165 57.4229C165 50.5428 170.082 46.1424 177.83 46.1424C181.053 46.1424 184.275 47.1344 187.251 49.1183V55.9985ZM579.758 47.0599V55.7239L587.966 53.0449L589.562 57.7759L581.24 60.5119L586.37 67.5229L582.38 70.4869L577.25 63.2479L572.12 70.4869L568.13 67.5229L573.26 60.5119L564.995 57.7759L566.534 53.0449L574.799 55.7239V47.0599H579.758Z" fill="black"/>
<path d="M99 34.3639H37V96.3639H99V34.3639Z" fill="white"/>
<path d="M59.6901 0.445231C61.2457 5.95773 62.7685 13.1577 66.3885 16.8462C67.2363 17.7072 68.3179 18.7137 69.7804 18.1857C71.2429 17.6517 71.772 15.7377 72.2244 14.1642C73.3371 15.2037 72.256 18.4467 73.8018 19.0527C75.0849 19.0737 75.9451 18.5352 76.7959 17.9472C77.2699 17.6247 77.7849 17.3142 78.1359 17.0037C79.8024 15.5457 80.9742 13.7112 81.7629 11.4057C82.4449 9.41373 82.8492 7.28973 83.1838 4.77873C83.2201 4.49973 83.172 4.12173 83.4217 3.91323C83.7914 3.93573 83.7815 4.45473 83.8131 4.70373C83.9548 5.74623 83.85 7.05573 83.8131 8.24973C83.7691 9.62073 83.3853 11.8152 83.9707 12.6642C84.4635 13.3827 86.0044 13.4307 86.8905 13.0602C88.6236 12.3342 90.0421 10.3287 91.1461 8.80323C92.0413 7.56423 92.9595 6.39723 93.829 5.09673C94.0998 4.69323 94.2732 4.02723 94.8504 3.99273C94.7935 5.15073 94.2105 6.26823 93.7488 7.38573C92.4913 10.3932 90.7423 14.2917 91.0693 18.5802C91.1982 20.3367 91.8586 21.8772 92.6472 22.9152C93.0175 23.4102 93.5994 23.9997 94.3008 24.2577C95.3548 24.6432 97.0288 24.6387 98.0062 24.4947C99.4828 24.2712 101.016 23.5437 102.502 22.9152C105.516 21.6402 107.529 20.4012 109.909 18.3432C110.352 17.9622 110.874 17.4957 111.49 16.9227C111.993 16.4577 112.743 15.5397 113.064 15.5052C113.59 15.4497 114.022 15.9162 114.087 16.2162C114.256 16.9347 113.602 17.6562 113.064 18.4227C111.754 20.2842 110.226 22.2957 109.2 24.1782C108.166 26.087 107.107 28.4816 106.599 31.1951C106.114 33.7856 105.862 35.9043 106.206 38.6852C106.399 40.2507 106.887 41.9376 107.703 42.785C108.558 43.669 110.595 44.1648 112.198 43.5753C112.779 43.358 113.335 42.9378 113.856 42.6255C114.373 42.3132 114.85 41.8644 115.431 41.8386C115.624 42.3326 115.059 42.6378 114.799 42.942C114.501 43.2912 114.186 43.6364 114.012 44.0483C114.841 43.8783 115.215 43.2508 116.218 43.2608C116.19 43.7775 115.627 43.9205 115.272 44.2053C114.298 44.9799 112.933 46.6305 113.539 48.461C113.961 49.7394 115.281 50.6213 117.009 50.7467C119.683 50.9441 123.957 50.3007 126.354 50.1168C128.041 49.9862 130.837 49.6832 132.282 49.3703C133.737 49.0604 135.178 48.6378 136.539 48.2711C137.104 48.1174 137.713 47.9962 138.264 47.8402L138.666 47.7156C138.832 47.6593 138.997 47.5756 139.163 47.4895L139.413 47.3618C139.788 47.1768 140.168 47.0429 140.564 47.244C140.442 47.803 139.893 48.2125 139.455 48.5026C138.089 49.4226 136.278 50.0079 134.645 50.7121C132.776 51.522 129.131 53.0829 127.82 53.5171C125.099 54.4147 121.751 56.0248 119.373 57.4494C118.058 58.2379 115.82 59.4246 116.456 61.6258C116.844 62.98 118.376 63.2764 120.081 62.8123C119.696 63.3936 118.8 63.4722 118.032 63.7569C116.673 64.2591 115.41 64.8099 114.248 65.6472C113.307 66.325 112.53 67.0792 113.145 68.5669C114.06 68.8938 115.286 69.6643 114.171 70.6129C113.87 70.8714 113.451 70.75 113.382 71.1679C113.234 72.0268 114.276 71.6559 114.248 72.6667C113.663 73.1746 112.934 73.2298 112.514 73.7724C111.783 74.7087 112.095 76.194 112.59 77.0008C112.953 77.5897 113.684 78.1365 114.485 78.7359C115.187 79.2591 116.016 79.9869 116.532 80.2375C117.627 80.7538 119.414 80.7978 120.555 81.0222C120.665 81.6802 120.045 81.6175 119.846 81.9679C121.133 82.3172 122.888 82.6581 124.418 82.2825C124.334 82.9768 123.542 83.0823 123 83.3125C120.584 84.3175 117.654 84.8173 114.087 84.652C113.178 84.6069 112.194 84.3415 111.41 84.7288C111.05 85.5357 111.972 86.155 112.749 86.7016C113.358 87.1236 114.297 87.5893 114.878 87.7252C115.649 87.9081 116.64 87.8518 117.167 88.3563C117.872 89.026 117.888 90.4347 116.694 90.6403C115.671 90.822 114.611 89.9589 113.774 89.5387C112.776 89.0377 111.42 88.1583 109.835 88.3563C107.84 88.6024 105.554 90.9046 105.261 92.8498C105.149 93.5794 105.404 94.2157 105.182 95.0548C105.008 95.3014 104.609 95.1953 104.313 95.1362C104.63 95.9366 105.208 97.6177 104.232 98.1314C103.306 97.9685 103.324 96.7251 102.421 96.6326C101.753 96.5677 101.407 96.955 101.081 97.2661C100.304 97.9933 99.4982 99.6433 99.5022 101.362C99.5109 102.779 100.261 105.648 98.874 105.781C97.551 105.904 97.9611 103.791 96.5092 103.965C95.7615 104.057 95.4796 105.017 95.5605 106.095C95.6689 107.534 96.259 108.723 96.5859 110.196C97.1659 112.806 97.5597 115.741 97.4532 119.497C97.4044 121.193 97.2252 123.298 96.3498 123.44C95.1246 123.637 94.7877 121.523 94.3776 120.285C94.0189 119.202 93.3369 117.81 92.802 116.818C92.4415 116.153 91.9371 115.558 91.4625 114.926C90.5244 113.677 89.6244 112.456 88.0711 111.772C87.4054 112.968 88.0701 114.396 88.0711 115.715C88.074 116.482 87.8542 117.716 86.9671 117.766C85.8433 117.824 84.7195 115.518 84.3667 114.61C83.8219 113.22 83.482 111.552 82.8673 110.353C82.5528 109.739 82.0095 108.985 81.3685 108.856C80.1375 108.6 78.5431 109.508 78.1359 110.196C77.9179 110.563 77.6753 111.289 77.6631 111.616C77.6308 112.52 78.3943 113.591 78.5314 114.687C78.6568 115.672 78.4465 116.85 77.8213 116.975C77.4217 117.056 76.4772 116.389 76.0881 115.951C75.2484 115.002 74.1972 112.27 73.0125 111.535C71.5465 110.629 70.5978 111.934 69.8595 113.113C69.4353 113.783 68.806 114.582 68.6772 115.005C68.513 115.529 68.5617 116.297 68.5189 116.899C68.479 117.439 68.3782 118.161 68.4387 118.868C68.5189 119.788 68.85 120.498 68.9109 121.628C68.9754 122.738 68.6526 123.665 67.8094 123.677C65.9151 123.698 66.6187 118.625 66.4699 116.818C66.4048 116.03 66.13 114.949 65.7592 114.687C65.4732 115.756 65.7756 119.194 64.3407 119.182C63.709 119.178 63.2355 118.185 63.1564 117.054C63.0334 115.274 63.4395 113.166 63.3141 111.299C63.2572 110.426 63.0996 109.425 62.7615 108.776C61.8492 107.024 58.4151 106.979 56.5342 107.988C55.4613 108.562 54.7909 109.911 54.4845 111.455C54.2502 112.637 53.8429 114.427 52.5919 114.452C50.8623 114.488 51.522 112.077 50.1463 111.85C48.4435 111.571 47.6413 114.503 47.3097 115.951C46.2252 120.658 45.5889 125.018 43.6042 128.913C43.2651 129.579 43.0242 130.655 42.106 130.728C42.102 129.733 42.5842 128.815 42.8185 127.732C43.4683 124.669 43.2322 121.369 43.0524 117.606C42.9393 115.207 43.1004 113.024 42.7365 110.434C42.6076 109.498 42.4042 108.288 42.1857 107.198C41.9778 106.159 41.6536 104.848 41.2407 104.361C40.5334 103.522 38.8294 103.748 38.0842 104.361C37.6359 104.73 36.9861 105.583 36.5853 106.253C36.1974 106.906 35.85 108.122 35.1679 108.227C33.3445 108.497 33.4851 104.748 33.75 103.099C33.8514 102.448 34.0546 101.752 34.2217 101.129C34.4127 100.428 34.769 99.6836 34.776 99.2401C34.7812 98.2633 34.0125 97.331 33.3568 97.1096C32.6736 96.8741 31.834 97.0504 31.3036 97.2661C30.3861 97.6334 29.683 98.7995 29.1744 99.7082C28.8738 100.253 28.7157 100.82 28.5439 101.362C28.3657 101.935 28.3266 102.619 27.9141 102.945C27.406 102.668 27.5472 101.612 27.5982 100.89C27.7623 98.6173 28.9195 96.2693 29.4129 93.9538C29.5875 93.1306 29.673 92.2306 29.8072 91.3504C30.2074 88.7683 30.5314 84.2822 29.4129 82.0451C29.0062 81.2377 28.0266 79.9 26.9683 79.8403C26.3713 79.8074 25.6288 79.9504 25.0776 80.0758C23.8347 80.3665 22.4526 80.8786 21.2935 81.3391C20.1732 81.7786 18.747 82.7993 17.6649 81.73C17.5822 80.5598 18.6516 80.104 19.4016 79.603C20.7363 78.7118 22.5808 77.4181 22.473 75.11C22.3822 73.106 20.5236 72.1306 18.2197 72.7433C17.5869 72.9127 16.8012 73.4213 16.326 73.8496C16.1344 74.0207 15.9919 74.4022 15.6919 74.3213C15.8601 73.0058 16.0042 72.0209 16.4824 71.0887C16.8193 70.4312 17.4405 69.9391 17.7433 69.1961C18.1623 68.1754 18.45 66.3185 17.7433 65.4151C17.0595 64.5332 15.3931 63.8336 13.9605 63.3608C12.4845 62.8727 10.8246 62.5058 9.62397 61.9445C8.88807 61.6018 7.95297 61.0082 7.80942 60.1288C9.22902 61.0856 11.6578 60.843 14.3536 60.7586C14.6958 60.7481 15.0329 60.7443 15.3609 60.7433L16.0037 60.7437C17.0509 60.7465 17.9685 60.7497 18.6111 60.6028C19.3312 60.4399 20.3818 59.8985 20.4246 59.1848C20.4574 58.6076 19.8363 57.8606 19.4016 57.6068C18.7992 57.2558 17.8887 57.1909 17.0338 56.9752C14.7405 56.4004 11.9859 55.9546 9.46467 55.5572C6.46167 55.0844 2.99652 55.1125 0.635672 53.9002C0.404222 53.7812 -0.0405281 53.6318 0.00297188 53.2685C0.302372 52.9217 0.877172 53.1718 1.34592 53.1924C3.54837 53.285 6.32862 53.2122 8.83422 53.0324C10.2544 52.934 11.8149 52.5989 13.1695 52.2479C14.577 51.8805 15.9768 51.4364 16.8762 50.9043C17.6818 50.4273 18.9651 49.3017 19.4016 48.3824C19.8322 47.466 19.9407 45.8114 19.4016 44.9922C19.0236 44.4144 18.3639 43.9551 17.7433 43.491C17.1328 43.0433 16.3845 42.7709 15.9292 42.2318C17.4199 41.9376 19.3647 42.363 21.2935 42.2318C23.2195 42.1029 25.4901 41.2697 26.6526 40.2608C27.2665 39.7299 28.0165 38.3459 28.0722 37.1072C28.1121 36.2231 27.7921 35.0892 27.522 34.1898C26.9431 32.285 26.2207 30.9572 25.1542 29.4596C23.9167 27.7187 22.2919 26.2662 20.4246 25.1262C20.0683 24.9087 19.4496 24.8112 19.48 24.2577C20.6139 24.1737 21.6405 24.6822 22.5528 25.1262C25.2633 26.4332 27.7734 28.0761 30.9105 29.0646C30.7945 28.5402 30.348 28.0844 29.9649 27.6461C29.6004 27.2283 29.1522 26.8211 28.7824 26.3846C28.0254 25.5012 27.1939 24.5847 27.0463 23.3907C27.7026 23.5842 28.1542 24.1542 28.7824 24.4947C30.505 25.4262 33.0639 25.7553 35.8782 25.7553C37.6605 25.7553 39.4558 25.8221 41.1597 25.5987C42.8086 25.3767 44.4768 25.2582 45.4951 24.3342C45.4159 23.4672 44.9713 22.9662 44.7861 22.2057C45.3897 22.3107 45.5824 22.8282 46.2064 22.9152C46.3119 21.6012 45.8461 20.8572 45.4951 19.9962C46.6722 20.6607 47.8219 21.8817 49.0429 21.8127C50.2306 21.7452 51.1792 20.4087 51.805 19.5252C52.5838 18.4227 53.1808 17.3637 53.3016 15.9777C53.4153 14.6802 53.1082 13.3647 54.1699 13.2987C55.425 13.2177 55.2387 15.2682 56.5342 15.2682C57.4828 15.2682 58.3177 13.6332 58.6611 12.6642C59.8312 9.39573 59.3788 4.46673 59.2945 0.526231C59.3145 0.437731 59.4522 0.470731 59.4522 0.367231C59.577 0.344731 59.5869 0.443231 59.6901 0.445231ZM67.8094 36.1991C66.6472 36.1991 65.5818 36.8251 65.0183 37.8315L64.9242 38.013L58.0798 52.1975L42.8115 54.4668C41.6139 54.6491 40.6201 55.4816 40.2387 56.6342C39.8846 57.7167 40.129 58.901 40.8732 59.7503L41.0185 59.9055L52.1115 70.9697L49.4883 86.6108C49.2873 87.8178 49.7929 89.0301 50.7838 89.742C51.7201 90.4126 52.9389 90.5278 53.9774 90.0554L54.1699 89.96L67.8094 82.6223L81.4441 89.96C81.9252 90.2148 82.4449 90.3424 82.9657 90.3424C83.6238 90.3424 84.2782 90.1398 84.8308 89.742C85.7722 89.0697 86.2698 87.951 86.1513 86.8119L86.124 86.6108L83.5026 70.9697L94.5955 59.9055C95.4557 59.0495 95.7538 57.7844 95.3742 56.6342C95.0162 55.5456 94.111 54.7426 93.0001 54.5032L92.802 54.4668L77.5365 52.1975L70.6927 38.013C70.1619 36.9009 69.0399 36.1991 67.8094 36.1991ZM67.8094 43.9428L73.0752 54.8628C73.5943 55.9364 74.6086 56.6828 75.7851 56.8557L87.7342 58.6352L79.0312 67.3158C78.2086 68.135 77.833 69.3074 78.027 70.4535L80.0649 82.5977L69.5121 76.9281C68.9818 76.6398 68.3923 76.4963 67.8094 76.4963C67.2222 76.4963 66.6393 76.6398 66.102 76.9281L55.5556 82.5977L57.5917 70.4535C57.7828 69.3074 57.406 68.135 56.5834 67.3158L47.8822 58.6352L59.8312 56.8557C61.0095 56.6828 62.0226 55.9364 62.5395 54.8628L67.8094 43.9428Z" fill="#CC1F2F"/>
</g>
<defs>
<clipPath id="clip0_1_13">
<rect width="802" height="130" fill="white" transform="translate(0 0.363892)"/>
</clipPath>
</defs>
<script xmlns=""/></svg>