<svg width="150" height="30" viewBox="0 0 150 30" fill="none" xmlns="http://www.w3.org/2000/svg">
    <g clip-path="url(#clip0_48_1131)">
        <path fill-rule="evenodd" clip-rule="evenodd" d="M42.7681 12.8539C41.9489 12.0784 41.1581 11.8531 40.5085 11.8531C39.6188 11.8531 38.9833 12.3179 38.9833 12.9947C38.9833 14.8414 43.1491 14.813 43.1491 17.8712C43.1491 19.3788 42.0053 20.4782 40.4519 20.4782C39.4067 20.4782 38.5596 20.1964 37.7546 19.5909V17.8429C38.4608 18.7449 39.3505 19.2384 40.2968 19.2384C41.3698 19.2384 41.8642 18.5622 41.8642 18.0264C41.8642 16.0389 37.6982 15.814 37.6982 13.1778C37.6982 11.6133 38.856 10.6125 40.6214 10.6125C41.3558 10.6125 42.0902 10.8382 42.7681 11.2894V12.8539Z" fill="#595A59" style="fill:#595A59;fill:color(display-p3 0.3490 0.3529 0.3490);fill-opacity:1;"/>
        <path fill-rule="evenodd" clip-rule="evenodd" d="M49.9706 19.2101C52.131 19.2101 53.7269 17.6455 53.7269 15.546C53.7269 13.432 52.131 11.8811 49.9706 11.8811C47.8239 11.8811 46.228 13.432 46.228 15.546C46.228 17.6455 47.8239 19.2101 49.9706 19.2101ZM49.9706 10.6125C53.1478 10.6125 55.153 12.8677 55.153 15.546C55.153 18.1392 53.2042 20.4782 49.9422 20.4782C46.7927 20.4782 44.8016 18.153 44.8016 15.546C44.8016 12.8818 46.8493 10.6125 49.9706 10.6125Z" fill="#595A59" style="fill:#595A59;fill:color(display-p3 0.3490 0.3529 0.3490);fill-opacity:1;"/>
        <path fill-rule="evenodd" clip-rule="evenodd" d="M57.0932 11.9793V10.7395H65.3969L59.2682 19.111H65.3969V20.3516H56.712L62.841 11.9793H57.0932Z" fill="#595A59" style="fill:#595A59;fill:color(display-p3 0.3490 0.3529 0.3490);fill-opacity:1;"/>
        <path fill-rule="evenodd" clip-rule="evenodd" d="M68.0946 20.3516H69.4787V10.7395H68.0946V20.3516Z" fill="#595A59" style="fill:#595A59;fill:color(display-p3 0.3490 0.3529 0.3490);fill-opacity:1;"/>
        <path fill-rule="evenodd" clip-rule="evenodd" d="M75.1276 16.2783H78.1212L76.5684 12.797L75.1276 16.2783ZM81.3832 20.3516H79.9711L78.6863 17.5189H74.5907L73.3765 20.3516H71.9643L76.1023 10.6829H77.0763L81.3832 20.3516Z" fill="#595A59" style="fill:#595A59;fill:color(display-p3 0.3490 0.3529 0.3490);fill-opacity:1;"/>
        <path fill-rule="evenodd" clip-rule="evenodd" d="M84.6602 19.111H89.0096V20.3516H83.2761V10.7395H84.6602V19.111Z" fill="#595A59" style="fill:#595A59;fill:color(display-p3 0.3490 0.3529 0.3490);fill-opacity:1;"/>
        <path fill-rule="evenodd" clip-rule="evenodd" d="M99.502 20.3516H98.1185V16.1654H92.7235V20.3516H91.3398V10.7395H92.7235V14.9248H98.1185V10.7395H99.502V20.3516Z" fill="#595A59" style="fill:#595A59;fill:color(display-p3 0.3490 0.3529 0.3490);fill-opacity:1;"/>
        <path fill-rule="evenodd" clip-rule="evenodd" d="M108.512 11.9793H104.431V14.8825H108.371V16.1233H104.431V19.111H108.64V20.3516H103.047V10.7395H108.512V11.9793Z" fill="#595A59" style="fill:#595A59;fill:color(display-p3 0.3490 0.3529 0.3490);fill-opacity:1;"/>
        <path fill-rule="evenodd" clip-rule="evenodd" d="M112.891 19.111H117.24V20.3516H111.507V10.7395H112.891V19.111Z" fill="#595A59" style="fill:#595A59;fill:color(display-p3 0.3490 0.3529 0.3490);fill-opacity:1;"/>
        <path fill-rule="evenodd" clip-rule="evenodd" d="M121.251 19.111H123.454C126.589 19.111 127.309 16.7288 127.309 15.545C127.309 13.6145 126.08 11.9793 123.383 11.9793H121.251V19.111ZM119.867 10.7395H123.609C127.168 10.7395 128.735 13.2758 128.735 15.545C128.735 18.0116 126.801 20.3516 123.623 20.3516H119.867V10.7395Z" fill="#595A59" style="fill:#595A59;fill:color(display-p3 0.3490 0.3529 0.3490);fill-opacity:1;"/>
        <path fill-rule="evenodd" clip-rule="evenodd" d="M149.008 20.3515H147.822L141.383 12.9519V20.3515H140.083V10.7395H141.185L147.709 18.1803V10.7395H149.008V20.3515Z" fill="#595A59" style="fill:#595A59;fill:color(display-p3 0.3490 0.3529 0.3490);fill-opacity:1;"/>
        <path fill-rule="evenodd" clip-rule="evenodd" d="M137.089 11.9793H133.008V14.8825H136.948V16.1233H133.008V19.111H137.217V20.3516H131.624V10.7395H137.089V11.9793Z" fill="#595A59" style="fill:#595A59;fill:color(display-p3 0.3490 0.3529 0.3490);fill-opacity:1;"/>
        <path fill-rule="evenodd" clip-rule="evenodd" d="M30.1128 10.811C29.9643 10.8614 29.7869 10.8937 29.6249 10.9374C29.3125 11.0211 28.9817 11.1172 28.6481 11.1878C28.3166 11.2592 27.6748 11.3281 27.2878 11.3578C26.7379 11.3997 25.7572 11.5463 25.1435 11.5014C24.747 11.4728 24.4443 11.2719 24.3475 10.9806C24.2083 10.5638 24.5216 10.1877 24.7449 10.0114C24.8267 9.94651 24.9556 9.91389 24.962 9.79626C24.7319 9.79396 24.6463 9.93691 24.4559 9.97567C24.4957 9.88184 24.568 9.80317 24.6366 9.72373C24.6962 9.65426 24.8259 9.5848 24.7814 9.47236C24.6482 9.47831 24.5388 9.58039 24.4199 9.65158C24.3009 9.72277 24.1731 9.81833 24.0397 9.86783C23.6721 10.0022 23.2045 9.88913 23.0082 9.68785C22.8211 9.49481 22.7092 9.11065 22.6647 8.75393C22.5861 8.12071 22.6439 7.63812 22.755 7.04807C22.8718 6.43 23.1148 5.88447 23.3517 5.44985C23.587 5.02098 23.9378 4.56276 24.2384 4.13907C24.362 3.96445 24.512 3.79982 24.4731 3.63614C24.4582 3.56821 24.3591 3.46171 24.2384 3.47457C24.1648 3.48244 23.9926 3.69159 23.8772 3.79713C23.736 3.92761 23.616 4.03392 23.5147 4.12065C22.9684 4.58943 22.5064 4.8715 21.8148 5.16202C21.474 5.30536 21.1222 5.47076 20.7833 5.522C20.5591 5.55462 20.175 5.55596 19.9332 5.46808C19.7721 5.40917 19.6388 5.27504 19.5537 5.16202C19.3728 4.9258 19.2212 4.57465 19.1916 4.17495C19.1166 3.19787 19.5179 2.31001 19.8065 1.62517C19.9125 1.37054 20.0462 1.1161 20.0592 0.852252C19.9268 0.860119 19.887 1.01171 19.8249 1.10362C19.6254 1.40009 19.4147 1.66566 19.2092 1.94792C18.956 2.29524 18.6305 2.75212 18.2329 2.91752C18.0295 3.00195 17.6759 2.99102 17.5629 2.82753C17.4287 2.63392 17.5167 2.13405 17.5267 1.82185C17.5352 1.54995 17.5592 1.25157 17.5267 1.01401C17.5194 0.957406 17.5217 0.839396 17.437 0.834215C17.3796 0.881611 17.3906 0.967576 17.3823 1.03147C17.3056 1.60329 17.2128 2.08704 17.0564 2.54066C16.8753 3.06585 16.6064 3.48359 16.224 3.81555C16.1436 3.88636 16.0253 3.95716 15.9165 4.03066C15.7212 4.16478 15.5239 4.28702 15.2297 4.28241C14.875 4.14444 15.123 3.40568 14.8676 3.16889C14.7638 3.52753 14.6424 3.9635 14.307 4.08477C13.9713 4.20527 13.7231 3.97597 13.5286 3.77967C12.698 2.93959 12.3485 1.29992 11.9916 0.0442191C11.968 0.0432596 11.9657 0.0213846 11.9369 0.0263736C11.9369 0.0497838 11.9054 0.0424921 11.901 0.0626401C11.9203 0.960284 12.0241 2.08301 11.7556 2.82753C11.6767 3.04801 11.4852 3.42027 11.2675 3.42027C10.9702 3.42027 11.0129 2.95341 10.7251 2.97183C10.4813 2.98699 10.5519 3.28652 10.5258 3.58222C10.4982 3.89768 10.3611 4.13907 10.1825 4.39006C10.0389 4.59135 9.82121 4.89549 9.54865 4.91103C9.26855 4.92676 9.00469 4.64872 8.73464 4.49751C8.81506 4.69343 8.92195 4.86287 8.89779 5.16202C8.75455 5.14225 8.71029 5.02463 8.57188 5.00064C8.61441 5.17391 8.71647 5.28789 8.73464 5.48554C8.50094 5.69604 8.11819 5.72271 7.7397 5.77337C7.34884 5.82422 6.93691 5.80906 6.52788 5.80906C5.88224 5.80906 5.29517 5.73422 4.89987 5.522C4.75566 5.44428 4.65205 5.31457 4.50147 5.27043C4.53529 5.54253 4.72609 5.75111 4.89987 5.9524C4.98473 6.05179 5.08757 6.14447 5.17107 6.23965C5.25903 6.33943 5.36148 6.44324 5.38815 6.56279C4.66829 6.3377 4.09224 5.96353 3.47038 5.66591C3.26103 5.56459 3.02559 5.44889 2.7654 5.46808C2.75825 5.59395 2.90032 5.61602 2.98209 5.66591C3.41065 5.92553 3.78334 6.25634 4.0673 6.65278C4.31203 6.99395 4.47769 7.29637 4.61068 7.73003C4.67254 7.93496 4.746 8.19324 4.73691 8.39472C4.72396 8.6768 4.55211 8.99207 4.411 9.11295C4.14424 9.34264 3.62348 9.53242 3.18139 9.56197C2.73892 9.59171 2.29258 9.49481 1.95062 9.56197C2.0552 9.68458 2.22685 9.74675 2.3668 9.84865C2.50927 9.95438 2.66063 10.0591 2.74723 10.1906C2.87094 10.3771 2.8462 10.754 2.74723 10.9627C2.64729 11.1721 2.35269 11.4286 2.16789 11.5372C1.96144 11.6585 1.64037 11.7594 1.31735 11.8431C1.00652 11.9231 0.64852 11.9995 0.322609 12.0219C-0.252278 12.0628 -0.890183 12.0793 -1.39548 12.0584C-1.50296 12.0536 -1.63499 11.9966 -1.7038 12.0757C-1.71366 12.1584 -1.6116 12.1925 -1.55863 12.2196C-1.0168 12.4957 -0.221736 12.4894 0.467201 12.597C1.04595 12.6874 1.67787 12.7891 2.20404 12.92C2.40025 12.9691 2.60901 12.9839 2.74723 13.0637C2.84717 13.1216 2.98963 13.2917 2.98209 13.4231C2.97223 13.5858 2.73118 13.7092 2.56591 13.7462C2.34477 13.7963 1.98174 13.7696 1.58914 13.7817C0.970566 13.8009 0.413269 13.8562 0.0875508 13.6382C0.120413 13.8385 0.33498 13.9738 0.503929 14.0519C0.779387 14.1797 1.1602 14.2632 1.49887 14.3745C1.82748 14.4821 2.21003 14.6414 2.3668 14.8423C2.52899 15.0482 2.46307 15.4709 2.3668 15.7035C2.29741 15.8727 2.15475 15.9848 2.07762 16.1346C1.96782 16.3469 1.93477 16.5712 1.89611 16.8709C1.96492 16.8891 1.99759 16.8024 2.04167 16.7635C2.15069 16.666 2.33085 16.5501 2.47621 16.5115C3.0049 16.3718 3.43133 16.594 3.45202 17.0505C3.47676 17.5761 3.05362 17.8708 2.74723 18.0739C2.57538 18.188 2.32988 18.2918 2.34883 18.5584C2.59722 18.8019 2.92429 18.5693 3.18139 18.4693C3.44738 18.3644 3.76459 18.2477 4.04971 18.1815C4.17613 18.1531 4.34663 18.1205 4.48349 18.1278C4.72647 18.1416 4.95109 18.4463 5.04446 18.6301C5.30117 19.1396 5.22674 20.1614 5.13492 20.7495C5.10419 20.95 5.08447 21.155 5.04446 21.3424C4.93118 21.8699 4.66577 22.4047 4.62808 22.9224C4.61648 23.0869 4.58401 23.3273 4.70057 23.3904C4.79529 23.3162 4.80418 23.1604 4.84516 23.0299C4.8844 22.9063 4.92074 22.7772 4.98975 22.6532C5.10632 22.4462 5.26772 22.1806 5.47843 22.0969C5.60002 22.0478 5.79255 22.0077 5.94951 22.0612C6.0999 22.1117 6.27639 22.3241 6.27503 22.5465C6.27349 22.6476 6.19172 22.8171 6.14784 22.9767C6.10957 23.1187 6.06298 23.2772 6.03959 23.4256C5.97889 23.8011 5.94661 24.655 6.36492 24.5934C6.5215 24.5696 6.60114 24.2927 6.69025 24.1438C6.78227 23.9914 6.9313 23.797 7.03414 23.7128C7.20502 23.5733 7.59608 23.5217 7.75845 23.7128C7.85317 23.8239 7.9276 24.1225 7.97515 24.3591C8.02541 24.6074 8.07199 24.8829 8.10176 25.0963C8.18508 25.686 8.14816 26.1833 8.17406 26.7298C8.21543 27.5868 8.26955 28.3384 8.12032 29.0361C8.06658 29.2829 7.95601 29.4918 7.95698 29.7185C8.16768 29.702 8.22277 29.4569 8.30067 29.3051C8.7561 28.4179 8.90204 27.4248 9.15083 26.3528C9.22699 26.0229 9.41101 25.3552 9.80168 25.4187C10.1175 25.4703 9.96618 26.0197 10.3628 26.0114C10.6501 26.0057 10.7435 25.5979 10.7972 25.3287C10.8676 24.977 11.0212 24.6697 11.2675 24.5391C11.699 24.3092 12.4871 24.3196 12.6964 24.7185C12.7739 24.8664 12.8101 25.0944 12.8232 25.2932C12.8518 25.7184 12.7589 26.1987 12.7869 26.604C12.8052 26.8617 12.9139 27.0879 13.0587 27.0889C13.3879 27.0914 13.3185 26.3085 13.3842 26.065C13.4694 26.1244 13.5325 26.3708 13.5471 26.5502C13.5814 26.9618 13.42 28.1174 13.8545 28.1124C14.048 28.1099 14.1222 27.8986 14.1073 27.6457C14.0934 27.3884 14.0175 27.2266 13.9991 27.0171C13.9852 26.8561 14.0084 26.6917 14.0175 26.5687C14.0273 26.4316 14.0161 26.2566 14.0538 26.1373C14.0834 26.041 14.2278 25.8591 14.325 25.7063C14.4943 25.4379 14.712 25.1406 15.0485 25.3469C15.3203 25.5144 15.5616 26.1367 15.7541 26.3528C15.8434 26.4526 16.0601 26.6045 16.1519 26.5859C16.2954 26.5575 16.3435 26.2893 16.3149 26.065C16.2834 25.8153 16.1082 25.5712 16.1156 25.3655C16.1185 25.2909 16.1742 25.1257 16.224 25.042C16.3176 24.8852 16.6833 24.6784 16.9657 24.7369C17.1128 24.7663 17.2375 24.938 17.3096 25.0777C17.4507 25.3508 17.5286 25.7307 17.6537 26.0473C17.7347 26.2542 17.9926 26.7793 18.2504 26.7663C18.454 26.7548 18.5044 26.4737 18.5037 26.2991C18.5033 25.9986 18.351 25.6733 18.5037 25.4008C18.8601 25.5566 19.0666 25.8349 19.2819 26.1193C19.3907 26.2634 19.5065 26.3986 19.5893 26.5502C19.712 26.7763 19.8684 27.0933 19.9507 27.34C20.0449 27.6219 20.1222 28.1035 20.4033 28.0585C20.6041 28.026 20.6453 27.5469 20.6565 27.1604C20.6809 26.3048 20.5906 25.6365 20.4574 25.042C20.3824 24.7064 20.2471 24.4356 20.2221 24.1079C20.2036 23.8623 20.2683 23.6437 20.4398 23.6228C20.7731 23.5831 20.6789 24.0643 20.9824 24.0363C21.3008 24.006 21.1286 23.3526 21.1266 23.0299C21.1258 22.6384 21.3106 22.2625 21.4889 22.0969C21.5637 22.0261 21.6429 21.9379 21.7962 21.9526C22.0036 21.9737 21.9994 22.257 22.212 22.294C22.4361 22.177 22.3031 21.7941 22.2306 21.6118C22.2984 21.6253 22.3897 21.6495 22.4297 21.5932C22.4805 21.4021 22.4221 21.2572 22.448 21.0911C22.5151 20.648 23.0398 20.1236 23.4973 20.0675C23.8611 20.0225 24.1721 20.2228 24.4012 20.337C24.5933 20.4325 24.8365 20.6292 25.0712 20.5878C25.3453 20.5409 25.3416 20.2201 25.1796 20.0675C25.0588 19.9526 24.8313 19.9655 24.6546 19.9238C24.5212 19.8929 24.3059 19.7868 24.1661 19.6907C23.9879 19.5661 23.7762 19.4251 23.8586 19.2413C24.0388 19.153 24.2647 19.2137 24.4731 19.2238C25.2916 19.2614 25.9639 19.1476 26.5183 18.9187C26.6426 18.8663 26.8241 18.8424 26.8434 18.6842C26.4926 18.7698 26.0897 18.6921 25.7943 18.6125C25.8402 18.5326 25.9822 18.547 25.9573 18.397C25.6952 18.3459 25.2852 18.336 25.0341 18.2183C24.9156 18.1612 24.7256 17.9954 24.5643 17.8764C24.3805 17.7398 24.2129 17.6154 24.1296 17.4811C24.0161 17.2973 23.9444 16.9592 24.112 16.7458C24.2083 16.6222 24.3757 16.6098 24.51 16.494C24.5166 16.2638 24.2773 16.3482 24.3111 16.1525C24.3272 16.0573 24.423 16.0849 24.4924 16.0262C24.748 15.8102 24.4669 15.6346 24.257 15.5601C24.1157 15.2213 24.2943 15.0495 24.51 14.8953C24.7768 14.7045 25.0666 14.579 25.3782 14.4647C25.5545 14.3998 25.7601 14.3818 25.8485 14.2496C25.4572 14.3553 25.1058 14.2875 25.0165 13.9792C24.8707 13.4778 25.3842 13.2076 25.6859 13.028C26.2314 12.7035 26.9998 12.3368 27.624 12.1323C27.9248 12.0335 28.7612 11.6779 29.1901 11.4935C29.5648 11.3331 29.9804 11.1997 30.2939 10.9902C30.3942 10.924 30.5203 10.8307 30.5481 10.7035C30.3971 10.6271 30.2554 10.7628 30.1128 10.811Z" fill="#D51030" style="fill:#D51030;fill:color(display-p3 0.8353 0.0627 0.1882);fill-opacity:1;"/>
        <path fill-rule="evenodd" clip-rule="evenodd" d="M20.0921 13.5964L17.5321 16.1074L18.137 19.6566C18.1838 19.9306 18.0685 20.2057 17.8385 20.3672C17.711 20.4575 17.5599 20.5034 17.4083 20.5034C17.2879 20.5034 17.168 20.4745 17.0569 20.4168L13.9102 18.7516L10.7627 20.4168C10.514 20.5483 10.2107 20.529 9.98107 20.3672C9.75262 20.2057 9.63577 19.9306 9.68224 19.6566L10.2875 16.1074L7.7275 13.5964C7.52977 13.4022 7.46055 13.1152 7.54746 12.8541C7.63554 12.5925 7.86496 12.4036 8.14123 12.3623L11.665 11.8471L13.2445 8.62841C13.3674 8.37605 13.6263 8.2168 13.9102 8.2168C14.1942 8.2168 14.4532 8.37605 14.5757 8.62841L16.1552 11.8471L19.6782 12.3623C19.9552 12.4036 20.1842 12.5925 20.2717 12.8541C20.3594 13.1152 20.2906 13.4022 20.0921 13.5964Z" fill="#FFFFFE" style="fill:#FFFFFE;fill:color(display-p3 1.0000 1.0000 0.9961);fill-opacity:1;"/>
        <path fill-rule="evenodd" clip-rule="evenodd" d="M15.1278 12.467L13.9101 10.0085L12.6916 12.467C12.5722 12.7086 12.338 12.8769 12.0655 12.9158L9.30237 13.3166L11.3143 15.2708C11.5046 15.4552 11.5917 15.7192 11.5475 15.9772L11.0766 18.7116L13.5154 17.4351C13.6397 17.3702 13.7745 17.338 13.9101 17.338C14.0451 17.338 14.1812 17.3702 14.304 17.4351L16.7441 18.7116L16.2729 15.9772C16.228 15.7192 16.3149 15.4552 16.5051 15.2708L18.5174 13.3166L15.7545 12.9158C15.4825 12.8769 15.2478 12.7086 15.1278 12.467Z" fill="#D51030" style="fill:#D51030;fill:color(display-p3 0.8353 0.0627 0.1882);fill-opacity:1;"/>
    </g>
    <defs>
        <clipPath id="clip0_48_1131">
            <rect width="150" height="29.6928" fill="white" style="fill:white;fill-opacity:1;" transform="translate(0 0.153564)"/>
        </clipPath>
    </defs>
</svg>
