<svg viewBox="0 0 716 715" fill="none" xmlns="http://www.w3.org/2000/svg">
  <clipPath id="clip">
    <rect width="716" height="715" fill="white" />
  </clipPath>
  <g clip-path="url(#clip)">
    <rect x="0.446045" y="-0.273071" width="715.546" height="715.546" fill="white" />
    <path d="M-129.491 43.5345H102.448L130.505 84.6731L102.448 125.812H-129.491V43.5345Z" fill="#3BA356" />
    <path d="M-129.491 148.849H165.157L193.036 189.988L165.157 231.126H-129.491V148.849Z" fill="#60B850" />
    <path d="M-129.491 254.164H230.861L258.857 295.303L230.861 336.441H-129.491V254.164Z" fill="#C0D64C" />
    <path d="M-129.491 359.479H296.598L324.679 400.618L296.598 441.756H-129.491V359.479Z" fill="#FDF33C" />
    <path d="M-129.491 464.794H359.243L387.21 505.933L359.243 547.071H-129.491V464.794Z" fill="#F6BD34" />
    <path d="M-129.491 570.109H424.996L453.031 611.247L424.996 652.386H-129.491V570.109Z" fill="#E47A32" />
    <path d="M-129.491 672.132H504.054L532.018 713.271L504.054 754.409H-129.491V672.132Z" fill="#E23B2E" />
    <path d="M870.842 65.9844C870.842 56.0983 862.828 48.084 852.942 48.084H337.812C331.88 48.084 326.333 51.023 323.001 55.9313L238.591 180.291C234.472 186.36 234.472 194.328 238.591 200.397L323.001 324.756C326.333 329.665 331.88 332.604 337.812 332.604H852.942C862.828 332.604 870.842 324.59 870.842 314.703V65.9844Z" fill="black" />
    <path d="M432.954 233.667H410.622L444.649 135.099H471.505L505.484 233.667H483.153L458.462 157.623H457.692L432.954 233.667ZM431.558 194.923H484.308V211.191H431.558V194.923Z" fill="white" />
    <path d="M546.226 218.651V150.5H563.456V218.651H546.226ZM520.765 193.19V175.96H588.916V193.19H520.765Z" fill="white" />
  </g>
</svg>
